<svg width="512" height="512" viewBox="0 0 512 512" fill="none" xmlns="http://www.w3.org/2000/svg">
<path d="M463.412 335.412V223.608C464.98 221.518 466.024 218.906 466.024 215.771C466.547 209.502 462.89 203.233 456.62 200.62L253.388 109.714C249.208 107.624 244.506 107.624 240.326 109.714L37.0939 201.143C31.3469 203.755 27.6898 209.502 28.2122 215.771C28.7347 222.041 32.9143 227.788 38.6612 229.878L106.58 252.865V341.159C106.58 346.384 109.192 351.086 113.371 354.22C117.551 357.355 122.775 357.878 128 355.788C205.322 327.053 290.482 327.053 367.804 355.788C369.371 356.31 371.461 356.833 373.551 356.833C376.686 356.833 379.82 355.788 382.433 354.22C386.612 351.086 389.224 346.384 389.224 341.159V252.865L433.11 238.237V335.935C421.094 341.682 412.735 354.22 412.735 368.327C412.735 388.18 428.931 404.376 448.784 404.376C468.637 404.376 484.833 388.18 484.833 368.327C484.31 353.698 475.951 341.159 463.412 335.412ZM357.355 319.216C285.78 297.273 209.502 297.273 137.926 319.216V251.82C208.98 227.788 286.302 227.788 357.355 251.82V319.216ZM373.551 224.653C291.526 195.396 202.188 195.396 120.163 224.653L86.2041 213.159L247.118 141.061L407.51 213.159L373.551 224.653ZM447.739 372.506C445.126 372.506 443.037 370.416 443.037 367.804C443.037 365.192 445.126 363.102 447.739 363.102C450.351 363.102 452.441 365.192 452.441 367.804C452.441 370.416 450.351 372.506 447.739 372.506Z" fill="url(#paint0_linear)"/>
<defs>
<linearGradient id="paint0_linear" x1="256" y1="108.149" x2="256" y2="403.852" gradientUnits="userSpaceOnUse">
<stop stop-color="#6F00FF"/>
<stop offset="1" stop-color="#00ACEA"/>
</linearGradient>
</defs>
</svg>
